<svg id="レイヤー_1" data-name="レイヤー 1" xmlns="http://www.w3.org/2000/svg" viewBox="0 0 1024 1024"><defs><style>.cls-1{fill:#0900cd;}.cls-2{fill:#0400f7;}</style></defs><path class="cls-1" d="M1018.21,948.08a73.24,73.24,0,0,1-18.8,53.39L734.33,740.83a34.77,34.77,0,0,0,8.58-24.91l-18.41-340c-3.27-61-51.87-108.69-110.68-108.69H369.19C337.47,267.2,309,281,288.9,303L58.3,76.22C100.89,29.39,161.28,0,228.59,0H745.45c124.28,0,226.93,100.78,233.9,229.64Z"/><path class="cls-2" d="M734.33,740.83l265.08,260.64A67.78,67.78,0,0,1,949.06,1024H257.66c-124.29,0-226.93-100.78-233.9-229.64L-5.31,256.91C-9.06,187.19,15.74,123,58.3,76.22L288.9,303a117.27,117.27,0,0,0-30.42,85.84l13.77,254.39c3.28,61,51.87,108.67,110.69,108.67H710.2A32.08,32.08,0,0,0,734.33,740.83Z"/></svg>