<svg id="レイヤー_1" data-name="レイヤー 1" xmlns="http://www.w3.org/2000/svg" viewBox="0 0 1024.01 1024.01"><defs><style>.cls-1{fill:#fff;}.cls-2{fill:#0900cd;}.cls-3{fill:#0400f7;}</style></defs><rect class="cls-1" width="1024.01" height="1024.01"/><path class="cls-2" d="M1018.21,948.08a73.13,73.13,0,0,1-18.82,53.39L734.3,740.86a34.69,34.69,0,0,0,8.61-24.94l-18.4-340c-3.3-61-51.87-108.66-110.68-108.66H369.2c-31.69,0-60.14,13.77-80.29,35.72L58.31,76.22C100.92,29.39,161.29,0,228.6,0H745.45c124.29,0,226.93,100.75,233.9,229.61Z"/><path class="cls-3" d="M734.3,740.86l265.09,260.61A67.68,67.68,0,0,1,949.07,1024H257.67C133.38,1024,30.74,923.23,23.77,794.4L-5.3,256.91C-9.06,187.19,15.75,123,58.31,76.22L288.91,303a117.17,117.17,0,0,0-30.42,85.86l13.74,254.37c3.3,61,51.9,108.7,110.71,108.7H710.17A32.1,32.1,0,0,0,734.3,740.86Z"/></svg>